# xmcd
# 
# Track frame offsets:
#     187
#     41492
#     105157
#     146535
# 
# Disc length: 2760
# 
# Revision: 1
# Processed by: cddbd v1.5.2PL0 Copyright (c) Steve Scherf et al.
# Submitted via: BonkEnc v1.0.8
# 
DISCID=280ac604
DTITLE=Ron Carter - 1+3
DYEAR=1978
DGENRE=Jazz
TTITLE0=Muffin
TTITLE1=Mr. T.W.
TTITLE2=Doom
TTITLE3=New Song #3
EXTD=YEAR: 1978
EXTT0=
EXTT1=
EXTT2=
EXTT3=
PLAYORDER=
